<?xml version="1.0" standalone="no"?>
<!DOCTYPE svg PUBLIC "-//W3C//DTD SVG 20010904//EN"
 "http://www.w3.org/TR/2001/REC-SVG-20010904/DTD/svg10.dtd">
<svg version="1.0" xmlns="http://www.w3.org/2000/svg"
 width="901.000000pt" height="357.000000pt" viewBox="0 0 901.000000 357.000000"
 preserveAspectRatio="xMidYMid meet">
<metadata>
Created by potrace 1.16, written by Peter Selinger 2001-2019
</metadata>
<g transform="translate(0.000000,357.000000) scale(0.100000,-0.100000)"
fill="#000000" stroke="none">
<path d="M1525 3545 c-284 -46 -544 -151 -777 -315 -119 -83 -325 -289 -408
-408 -175 -250 -285 -536 -320 -834 -17 -146 -8 -390 20 -532 162 -819 845
-1410 1670 -1443 307 -12 580 44 855 177 97 46 305 177 305 191 0 10 -170 229
-177 229 -4 0 -43 -24 -87 -54 -159 -105 -323 -174 -517 -218 -140 -31 -455
-33 -589 -4 -124 27 -233 63 -338 112 -426 199 -727 581 -829 1055 -26 121
-26 459 1 579 99 457 385 826 794 1030 570 283 1246 173 1698 -275 55 -55 127
-137 158 -183 39 -55 62 -80 70 -75 156 94 236 150 231 162 -3 8 -32 51 -63
96 -77 108 -286 315 -402 398 -185 131 -454 248 -685 297 -133 29 -474 37
-610 15z"/>
<path d="M8401 2244 c-175 -47 -320 -205 -351 -382 -29 -168 54 -358 198 -451
74 -47 128 -63 239 -70 l101 -6 -139 -200 c-76 -110 -138 -203 -139 -207 0 -3
30 -27 66 -53 55 -38 69 -44 79 -33 34 35 480 700 500 743 85 189 50 381 -94
526 -129 130 -295 178 -460 133z m244 -199 c51 -25 115 -89 140 -140 23 -48
32 -164 16 -222 -17 -61 -80 -136 -142 -167 -73 -36 -180 -37 -256 -2 -102 48
-164 135 -171 241 -9 138 65 253 195 301 52 19 167 14 218 -11z"/>
<path d="M3902 2201 c33 -92 594 -1339 600 -1333 4 4 141 304 303 667 163 362
298 663 301 667 3 4 -39 8 -93 8 l-98 -1 -204 -459 c-113 -253 -207 -460 -210
-460 -3 0 -98 207 -210 460 l-204 460 -94 0 c-53 0 -93 -4 -91 -9z"/>
<path d="M5280 1555 l0 -655 90 0 90 0 0 655 0 655 -90 0 -90 0 0 -655z"/>
<path d="M5750 1555 l0 -657 258 4 c279 5 317 11 441 68 183 86 316 258 357
460 55 275 -86 574 -329 696 -130 66 -191 77 -474 82 l-253 4 0 -657z m512
459 c99 -20 155 -50 226 -120 91 -91 133 -184 140 -310 10 -203 -77 -357 -252
-446 -75 -38 -159 -55 -318 -63 l-128 -7 0 487 0 488 133 -7 c72 -4 162 -14
199 -22z"/>
<path d="M7515 2198 c-2 -7 -16 -45 -30 -84 -14 -39 -25 -74 -25 -78 0 -3 50
-6 110 -6 l110 0 0 -565 0 -565 90 0 90 0 0 655 0 655 -170 0 c-128 0 -172 -3
-175 -12z"/>
<path d="M7000 1320 l0 -90 240 0 240 0 0 90 0 90 -240 0 -240 0 0 -90z"/>
<path d="M3855 605 c-15 -49 -15 -49 -27 -37 -35 35 -91 -11 -86 -72 4 -47 28
-67 58 -48 12 7 20 8 20 2 0 -5 6 -10 13 -10 9 0 21 32 34 90 16 73 17 90 6
90 -7 0 -16 -7 -18 -15z"/>
<path d="M7345 605 c-15 -49 -15 -49 -27 -37 -35 35 -91 -11 -86 -72 4 -47 28
-67 58 -48 12 7 20 8 20 2 0 -5 6 -10 13 -10 9 0 21 32 34 90 16 73 17 90 6
90 -7 0 -16 -7 -18 -15z"/>
<path d="M5960 560 c-24 -24 -27 -91 -5 -110 8 -7 25 -10 40 -6 20 5 23 3 18
-10 -5 -13 -14 -15 -44 -10 -30 5 -39 3 -39 -8 0 -26 63 -36 93 -13 18 13 56
162 44 173 -4 4 -13 1 -21 -5 -10 -8 -16 -9 -21 -1 -10 16 -43 12 -65 -10z"/>
<path d="M4026 281 c-3 -9 -10 -43 -16 -76 -6 -33 -14 -68 -16 -77 -3 -11 0
-18 9 -18 16 0 27 21 27 51 0 22 4 23 29 7 46 -28 100 57 68 106 -19 29 -93
34 -101 7z"/>
</g>
</svg>
